Format                                   : MPEG-4
Format profile                           : Base Media / Version 2
Codec ID                                 : mp42
File size                                : 319 MiB
Duration                                 : 44mn 44s
Overall bit rate mode                    : Variable
Overall bit rate                         : 996 Kbps
Encoded date                             : UTC 2013-05-08 20:51:59
Tagged date                              : UTC 2013-05-08 21:01:13
Writing application                      : HandBrake 5433svn 2013050101

Video
ID                                       : 1
Format                                   : AVC
Format/Info                              : Advanced Video Codec
Format profile                           : Main@L4.0
Format settings, CABAC                   : Yes
Format settings, ReFrames                : 4 frames
Codec ID                                 : avc1
Codec ID/Info                            : Advanced Video Coding
Duration                                 : 44mn 44s
Bit rate mode                            : Variable
Bit rate                                 : 832 Kbps
Width                                    : 720 pixels
Height                                   : 586 pixels
Display aspect ratio                     : 16:9
Frame rate mode                          : Variable
Frame rate                               : 25.000 fps
Minimum frame rate                       : 5.952 fps
Maximum frame rate                       : 62.500 fps
Color space                              : YUV
Chroma subsampling                       : 4:2:0
Bit depth                                : 8 bits
Scan type                                : Progressive
Bits/(Pixel*Frame)                       : 0.079
Stream size                              : 266 MiB (84%)
Writing library                          : x264 core 130
Encoding settings                        : cabac=1 / ref=1 / deblock=1:0:0 / a
Encoded date                             : UTC 2013-05-08 20:51:59
Tagged date                              : UTC 2013-05-08 21:01:13
Color primaries                          : BT.601 PAL
Transfer characteristics                 : BT.709
Matrix coefficients                      : BT.601

Audio
ID                                       : 2
Format                                   : AAC
Format/Info                              : Advanced Audio Codec
Format profile                           : LC
Codec ID                                 : 40
Duration                                 : 44mn 43s
Bit rate mode                            : Variable
Bit rate                                 : 160 Kbps
Maximum bit rate                         : 214 Kbps
Channel(s)                               : 2 channels
Channel positions                        : Front: L R
Sampling rate                            : 48.0 KHz
Compression mode                         : Lossy
Delay relative to video                  : 182ms
Stream size                              : 51.2 MiB (16%)
Encoded date                             : UTC 2013-05-08 20:51:


In the aftermath of the riot, Will blackmails Doreen into helping him and Bea is given no choice but to continue to lie.



Ripped From Foxtel Soho Channel Australia



ADD FREE